<svg xmlns="http://www.w3.org/2000/svg" xmlns:xlink="http://www.w3.org/1999/xlink" width="500" zoomAndPan="magnify" viewBox="0 0 375 374.999991" height="500" preserveAspectRatio="xMidYMid meet" version="1.0"><defs><g/><clipPath id="17392ba520"><path d="M 0 0.679688 L 368.640625 0.679688 L 368.640625 156.199219 L 0 156.199219 Z M 0 0.679688 " clip-rule="nonzero"/></clipPath><clipPath id="8481d8969c"><path d="M 309 58 L 368.640625 58 L 368.640625 120 L 309 120 Z M 309 58 " clip-rule="nonzero"/></clipPath><clipPath id="f315b7c2f7"><rect x="0" width="369" y="0" height="157"/></clipPath><clipPath id="9a1343b7fd"><path d="M 282.117188 33.5 L 303.042969 33.5 L 303.042969 54.425781 L 282.117188 54.425781 Z M 282.117188 33.5 " clip-rule="nonzero"/></clipPath><clipPath id="6c06bb175d"><path d="M 292.582031 33.5 C 286.800781 33.5 282.117188 38.183594 282.117188 43.960938 C 282.117188 49.742188 286.800781 54.425781 292.582031 54.425781 C 298.359375 54.425781 303.042969 49.742188 303.042969 43.960938 C 303.042969 38.183594 298.359375 33.5 292.582031 33.5 Z M 292.582031 33.5 " clip-rule="nonzero"/></clipPath><clipPath id="657df562a2"><path d="M 0.117188 0.5 L 21.042969 0.5 L 21.042969 21.425781 L 0.117188 21.425781 Z M 0.117188 0.5 " clip-rule="nonzero"/></clipPath><clipPath id="b9876205b7"><path d="M 10.582031 0.5 C 4.800781 0.5 0.117188 5.183594 0.117188 10.960938 C 0.117188 16.742188 4.800781 21.425781 10.582031 21.425781 C 16.359375 21.425781 21.042969 16.742188 21.042969 10.960938 C 21.042969 5.183594 16.359375 0.5 10.582031 0.5 Z M 10.582031 0.5 " clip-rule="nonzero"/></clipPath><clipPath id="dd4d8c85cb"><rect x="0" width="22" y="0" height="22"/></clipPath><clipPath id="39085b8763"><rect x="0" width="369" y="0" height="157"/></clipPath></defs><g transform="matrix(1, 0, 0, 1, 0, 109)"><g clip-path="url(#39085b8763)"><g clip-path="url(#17392ba520)"><g transform="matrix(1, 0, 0, 1, 0, 0)"><g clip-path="url(#f315b7c2f7)"><g fill="#f4f2ec" fill-opacity="1"><g transform="translate(-1.069922, 119.584286)"><g><path d="M 44.796875 1.703125 C 39.359375 1.703125 35.175781 0.769531 32.25 -1.09375 C 29.332031 -2.957031 27.1875 -5.023438 25.8125 -7.296875 L 23.609375 -7.296875 L 23.609375 0 L 8.515625 0 L 8.515625 -85.21875 L 23.859375 -85.21875 L 23.859375 -53.4375 L 26.046875 -53.4375 C 26.941406 -54.894531 28.140625 -56.273438 29.640625 -57.578125 C 31.140625 -58.878906 33.125 -59.953125 35.59375 -60.796875 C 38.070312 -61.648438 41.140625 -62.078125 44.796875 -62.078125 C 49.671875 -62.078125 54.175781 -60.878906 58.3125 -58.484375 C 62.445312 -56.097656 65.769531 -52.59375 68.28125 -47.96875 C 70.800781 -43.34375 72.0625 -37.738281 72.0625 -31.15625 L 72.0625 -29.21875 C 72.0625 -22.644531 70.800781 -17.046875 68.28125 -12.421875 C 65.769531 -7.796875 62.445312 -4.285156 58.3125 -1.890625 C 54.175781 0.503906 49.671875 1.703125 44.796875 1.703125 Z M 40.171875 -11.6875 C 44.878906 -11.6875 48.816406 -13.207031 51.984375 -16.25 C 55.148438 -19.289062 56.734375 -23.734375 56.734375 -29.578125 L 56.734375 -30.796875 C 56.734375 -36.640625 55.171875 -41.082031 52.046875 -44.125 C 48.921875 -47.164062 44.960938 -48.6875 40.171875 -48.6875 C 35.460938 -48.6875 31.523438 -47.164062 28.359375 -44.125 C 25.191406 -41.082031 23.609375 -36.640625 23.609375 -30.796875 L 23.609375 -29.578125 C 23.609375 -23.734375 25.191406 -19.289062 28.359375 -16.25 C 31.523438 -13.207031 35.460938 -11.6875 40.171875 -11.6875 Z M 40.171875 -11.6875 "/></g></g></g><g fill="#f4f2ec" fill-opacity="1"><g transform="translate(69.04724, 119.584286)"><g><path d="M 37.25 1.703125 C 31.25 1.703125 25.851562 0.488281 21.0625 -1.9375 C 16.269531 -4.375 12.492188 -7.90625 9.734375 -12.53125 C 6.972656 -17.164062 5.59375 -22.726562 5.59375 -29.21875 L 5.59375 -31.15625 C 5.59375 -37.65625 6.972656 -43.21875 9.734375 -47.84375 C 12.492188 -52.46875 16.269531 -55.992188 21.0625 -58.421875 C 25.851562 -60.859375 31.25 -62.078125 37.25 -62.078125 C 43.257812 -62.078125 48.65625 -60.859375 53.4375 -58.421875 C 58.226562 -55.992188 62.003906 -52.46875 64.765625 -47.84375 C 67.523438 -43.21875 68.90625 -37.65625 68.90625 -31.15625 L 68.90625 -29.21875 C 68.90625 -22.726562 67.523438 -17.164062 64.765625 -12.53125 C 62.003906 -7.90625 58.226562 -4.375 53.4375 -1.9375 C 48.65625 0.488281 43.257812 1.703125 37.25 1.703125 Z M 37.25 -11.9375 C 41.957031 -11.9375 45.851562 -13.457031 48.9375 -16.5 C 52.019531 -19.539062 53.5625 -23.898438 53.5625 -29.578125 L 53.5625 -30.796875 C 53.5625 -36.472656 52.039062 -40.832031 49 -43.875 C 45.957031 -46.925781 42.039062 -48.453125 37.25 -48.453125 C 32.539062 -48.453125 28.644531 -46.925781 25.5625 -43.875 C 22.476562 -40.832031 20.9375 -36.472656 20.9375 -30.796875 L 20.9375 -29.578125 C 20.9375 -23.898438 22.476562 -19.539062 25.5625 -16.5 C 28.644531 -13.457031 32.539062 -11.9375 37.25 -11.9375 Z M 37.25 -11.9375 "/></g></g></g><g fill="#f4f2ec" fill-opacity="1"><g transform="translate(135.999408, 119.584286)"><g><path d="M 44.796875 1.703125 C 39.359375 1.703125 35.175781 0.769531 32.25 -1.09375 C 29.332031 -2.957031 27.1875 -5.023438 25.8125 -7.296875 L 23.609375 -7.296875 L 23.609375 0 L 8.515625 0 L 8.515625 -85.21875 L 23.859375 -85.21875 L 23.859375 -53.4375 L 26.046875 -53.4375 C 26.941406 -54.894531 28.140625 -56.273438 29.640625 -57.578125 C 31.140625 -58.878906 33.125 -59.953125 35.59375 -60.796875 C 38.070312 -61.648438 41.140625 -62.078125 44.796875 -62.078125 C 49.671875 -62.078125 54.175781 -60.878906 58.3125 -58.484375 C 62.445312 -56.097656 65.769531 -52.59375 68.28125 -47.96875 C 70.800781 -43.34375 72.0625 -37.738281 72.0625 -31.15625 L 72.0625 -29.21875 C 72.0625 -22.644531 70.800781 -17.046875 68.28125 -12.421875 C 65.769531 -7.796875 62.445312 -4.285156 58.3125 -1.890625 C 54.175781 0.503906 49.671875 1.703125 44.796875 1.703125 Z M 40.171875 -11.6875 C 44.878906 -11.6875 48.816406 -13.207031 51.984375 -16.25 C 55.148438 -19.289062 56.734375 -23.734375 56.734375 -29.578125 L 56.734375 -30.796875 C 56.734375 -36.640625 55.171875 -41.082031 52.046875 -44.125 C 48.921875 -47.164062 44.960938 -48.6875 40.171875 -48.6875 C 35.460938 -48.6875 31.523438 -47.164062 28.359375 -44.125 C 25.191406 -41.082031 23.609375 -36.640625 23.609375 -30.796875 L 23.609375 -29.578125 C 23.609375 -23.734375 25.191406 -19.289062 28.359375 -16.25 C 31.523438 -13.207031 35.460938 -11.6875 40.171875 -11.6875 Z M 40.171875 -11.6875 "/></g></g></g><g fill="#f4f2ec" fill-opacity="1"><g transform="translate(206.11657, 119.584286)"><g><path d="M 44.796875 1.703125 C 39.359375 1.703125 35.175781 0.769531 32.25 -1.09375 C 29.332031 -2.957031 27.1875 -5.023438 25.8125 -7.296875 L 23.609375 -7.296875 L 23.609375 0 L 8.515625 0 L 8.515625 -85.21875 L 23.859375 -85.21875 L 23.859375 -53.4375 L 26.046875 -53.4375 C 26.941406 -54.894531 28.140625 -56.273438 29.640625 -57.578125 C 31.140625 -58.878906 33.125 -59.953125 35.59375 -60.796875 C 38.070312 -61.648438 41.140625 -62.078125 44.796875 -62.078125 C 49.671875 -62.078125 54.175781 -60.878906 58.3125 -58.484375 C 62.445312 -56.097656 65.769531 -52.59375 68.28125 -47.96875 C 70.800781 -43.34375 72.0625 -37.738281 72.0625 -31.15625 L 72.0625 -29.21875 C 72.0625 -22.644531 70.800781 -17.046875 68.28125 -12.421875 C 65.769531 -7.796875 62.445312 -4.285156 58.3125 -1.890625 C 54.175781 0.503906 49.671875 1.703125 44.796875 1.703125 Z M 40.171875 -11.6875 C 44.878906 -11.6875 48.816406 -13.207031 51.984375 -16.25 C 55.148438 -19.289062 56.734375 -23.734375 56.734375 -29.578125 L 56.734375 -30.796875 C 56.734375 -36.640625 55.171875 -41.082031 52.046875 -44.125 C 48.921875 -47.164062 44.960938 -48.6875 40.171875 -48.6875 C 35.460938 -48.6875 31.523438 -47.164062 28.359375 -44.125 C 25.191406 -41.082031 23.609375 -36.640625 23.609375 -30.796875 L 23.609375 -29.578125 C 23.609375 -23.734375 25.191406 -19.289062 28.359375 -16.25 C 31.523438 -13.207031 35.460938 -11.6875 40.171875 -11.6875 Z M 40.171875 -11.6875 "/></g></g></g><g fill="#f4f2ec" fill-opacity="1"><g transform="translate(276.233732, 119.584286)"><g><path d="M 8.515625 0 L 8.515625 -60.375 L 23.859375 -60.375 L 23.859375 0 Z M 16.1875 -67.4375 C 13.425781 -67.4375 11.09375 -68.328125 9.1875 -70.109375 C 7.28125 -71.898438 6.328125 -74.253906 6.328125 -77.171875 C 6.328125 -80.097656 7.28125 -82.453125 9.1875 -84.234375 C 11.09375 -86.023438 13.425781 -86.921875 16.1875 -86.921875 C 19.019531 -86.921875 21.367188 -86.023438 23.234375 -84.234375 C 25.109375 -82.453125 26.046875 -80.097656 26.046875 -77.171875 C 26.046875 -74.253906 25.109375 -71.898438 23.234375 -70.109375 C 21.367188 -68.328125 19.019531 -67.4375 16.1875 -67.4375 Z M 16.1875 -67.4375 "/></g></g></g><g clip-path="url(#8481d8969c)"><g fill="#f4f2ec" fill-opacity="1"><g transform="translate(301.066905, 119.584286)"><g><path d="M 8.515625 0 L 8.515625 -60.375 L 23.609375 -60.375 L 23.609375 -52.46875 L 25.8125 -52.46875 C 26.78125 -54.570312 28.601562 -56.578125 31.28125 -58.484375 C 33.957031 -60.398438 38.015625 -61.359375 43.453125 -61.359375 C 48.160156 -61.359375 52.28125 -60.28125 55.8125 -58.125 C 59.34375 -55.976562 62.082031 -53.015625 64.03125 -49.234375 C 65.976562 -45.460938 66.953125 -41.0625 66.953125 -36.03125 L 66.953125 0 L 51.609375 0 L 51.609375 -34.8125 C 51.609375 -39.363281 50.492188 -42.773438 48.265625 -45.046875 C 46.035156 -47.316406 42.851562 -48.453125 38.71875 -48.453125 C 34.007812 -48.453125 30.351562 -46.890625 27.75 -43.765625 C 25.15625 -40.640625 23.859375 -36.273438 23.859375 -30.671875 L 23.859375 0 Z M 8.515625 0 "/></g></g></g></g></g></g></g><g clip-path="url(#9a1343b7fd)"><g clip-path="url(#6c06bb175d)"><g transform="matrix(1, 0, 0, 1, 282, 33)"><g clip-path="url(#dd4d8c85cb)"><g clip-path="url(#657df562a2)"><g clip-path="url(#b9876205b7)"><path fill="#ff2d2d" d="M 0.117188 0.5 L 21.042969 0.5 L 21.042969 21.425781 L 0.117188 21.425781 Z M 0.117188 0.5 " fill-opacity="1" fill-rule="nonzero"/></g></g></g></g></g></g></g></g></svg>