<svg xmlns="http://www.w3.org/2000/svg" xmlns:xlink="http://www.w3.org/1999/xlink" width="500" zoomAndPan="magnify" viewBox="0 0 375 374.999991" height="500" preserveAspectRatio="xMidYMid meet" version="1.0"><defs><g/><clipPath id="3fb8dca2a4"><rect x="0" width="310" y="0" height="375"/></clipPath></defs><g transform="matrix(1, 0, 0, 1, 21, 0)"><g clip-path="url(#3fb8dca2a4)"><g fill="#ff2d2d" fill-opacity="1"><g transform="translate(3.461523, 362.25223)"><g><path d="M 188.0625 7.15625 C 165.238281 7.15625 147.691406 3.238281 135.421875 -4.59375 C 123.160156 -12.4375 114.132812 -21.125 108.34375 -30.65625 L 99.140625 -30.65625 L 99.140625 0 L 35.765625 0 L 35.765625 -357.71875 L 100.15625 -357.71875 L 100.15625 -224.34375 L 109.359375 -224.34375 C 113.109375 -230.476562 118.132812 -236.269531 124.4375 -241.71875 C 130.738281 -247.164062 139.082031 -251.675781 149.46875 -255.25 C 159.863281 -258.832031 172.726562 -260.625 188.0625 -260.625 C 208.5 -260.625 227.40625 -255.597656 244.78125 -245.546875 C 262.15625 -235.492188 276.125 -220.757812 286.6875 -201.34375 C 297.25 -181.925781 302.53125 -158.421875 302.53125 -130.828125 L 302.53125 -122.640625 C 302.53125 -95.046875 297.25 -71.539062 286.6875 -52.125 C 276.125 -32.707031 262.15625 -17.972656 244.78125 -7.921875 C 227.40625 2.128906 208.5 7.15625 188.0625 7.15625 Z M 168.640625 -49.0625 C 188.398438 -49.0625 204.921875 -55.445312 218.203125 -68.21875 C 231.492188 -81 238.140625 -99.65625 238.140625 -124.1875 L 238.140625 -129.296875 C 238.140625 -153.816406 231.582031 -172.460938 218.46875 -185.234375 C 205.351562 -198.015625 188.742188 -204.40625 168.640625 -204.40625 C 148.878906 -204.40625 132.351562 -198.015625 119.0625 -185.234375 C 105.78125 -172.460938 99.140625 -153.816406 99.140625 -129.296875 L 99.140625 -124.1875 C 99.140625 -99.65625 105.78125 -81 119.0625 -68.21875 C 132.351562 -55.445312 148.878906 -49.0625 168.640625 -49.0625 Z M 168.640625 -49.0625 "/></g></g></g></g></g></svg>